<svg width="851" height="953" viewBox="0 0 851 953" fill="none" xmlns="http://www.w3.org/2000/svg">
<g filter="url(#filter0_d_172_32)">
<path d="M651.546 0.0908203L850.055 0.0908203V609.832C850.055 678.294 833.704 738.198 801.001 789.545C768.604 840.891 723.217 880.929 664.841 909.659C606.465 938.083 538.461 952.295 460.83 952.295C382.893 952.295 314.737 938.083 256.361 909.659C197.984 880.929 152.598 840.891 120.2 789.545C87.8031 738.198 71.6045 678.294 71.6045 609.832L71.6045 0.0908203L270.114 0.0908203V592.869C270.114 628.628 277.908 660.414 293.495 688.227C309.388 716.04 331.699 737.892 360.429 753.785C389.159 769.678 422.626 777.625 460.83 777.625C499.34 777.625 532.807 769.678 561.231 753.785C589.961 737.892 612.119 716.04 627.706 688.227C643.599 660.414 651.546 628.628 651.546 592.869V0.0908203Z" fill="#114666"/>
</g>
<defs>
<filter id="filter0_d_172_32" x="0.604492" y="0.0908203" width="849.451" height="952.204" filterUnits="userSpaceOnUse" color-interpolation-filters="sRGB">
<feFlood flood-opacity="0" result="BackgroundImageFix"/>
<feColorMatrix in="SourceAlpha" type="matrix" values="0 0 0 0 0 0 0 0 0 0 0 0 0 0 0 0 0 0 127 0" result="hardAlpha"/>
<feOffset dx="-71"/>
<feComposite in2="hardAlpha" operator="out"/>
<feColorMatrix type="matrix" values="0 0 0 0 1 0 0 0 0 0.819608 0 0 0 0 0.00392157 0 0 0 1 0"/>
<feBlend mode="normal" in2="BackgroundImageFix" result="effect1_dropShadow_172_32"/>
<feBlend mode="normal" in="SourceGraphic" in2="effect1_dropShadow_172_32" result="shape"/>
</filter>
</defs>
</svg>
